<?xml version="1.0" encoding="UTF-8"?>
<svg xmlns="http://www.w3.org/2000/svg" xmlns:xlink="http://www.w3.org/1999/xlink" width="2000" height="2000" viewBox="0 0 2000 2000">
<defs>
<clipPath id="clip-0">

</clipPath>
<clipPath id="clip-1">
<path clip-rule="nonzero" d="M 1097.46875 955.890625 L 1099.179688 843.5 L 1053.609375 843.5 L 1044.230469 966.929688 L 1046.109375 843.5 L 1004.738281 843.5 L 999.902344 980.980469 L 995.066406 843.5 L 953.703125 843.5 L 955.582031 966.929688 L 946.195312 843.5 L 900.628906 843.5 L 902.339844 955.890625 L 893.792969 843.5 L 853.683594 843.5 C 859.667969 889.261719 865.652344 935.019531 871.636719 980.78125 C 874.195312 1000.339844 895.351562 1015.21875 920.597656 1015.21875 L 1080.441406 1015.21875 C 1105.691406 1015.21875 1126.839844 1000.339844 1129.398438 980.78125 C 1135.390625 935.019531 1141.371094 889.261719 1147.359375 843.5 L 1106.019531 843.5 Z M 1097.46875 955.890625 "/>
</clipPath>
<clipPath id="clip-2">
<path clip-rule="nonzero" d="M 1097.46875 955.890625 L 1099.179688 843.5 L 1053.609375 843.5 L 1044.230469 966.929688 L 1046.109375 843.5 L 1004.738281 843.5 L 999.902344 980.980469 L 995.066406 843.5 L 953.703125 843.5 L 955.582031 966.929688 L 946.195312 843.5 L 900.628906 843.5 L 902.339844 955.890625 L 893.792969 843.5 L 853.683594 843.5 C 859.667969 889.261719 865.652344 935.019531 871.636719 980.78125 C 874.195312 1000.339844 895.351562 1015.21875 920.597656 1015.21875 L 1080.441406 1015.21875 C 1105.691406 1015.21875 1126.839844 1000.339844 1129.398438 980.78125 C 1135.390625 935.019531 1141.371094 889.261719 1147.359375 843.5 L 1106.019531 843.5 L 1097.46875 955.890625 "/>
</clipPath>
<linearGradient id="linear-pattern-0" gradientUnits="userSpaceOnUse" x1="0.405508" y1="0" x2="0.657356" y2="0" gradientTransform="matrix(-604, 1016, -1016, -604, 1308.41, 381.64)">
<stop offset="0" stop-color="rgb(57.307434%, 39.10675%, 21.30127%)" stop-opacity="1"/>
<stop offset="0.015625" stop-color="rgb(57.228088%, 39.028931%, 21.243286%)" stop-opacity="1"/>
<stop offset="0.03125" stop-color="rgb(57.069397%, 38.870239%, 21.125793%)" stop-opacity="1"/>
<stop offset="0.046875" stop-color="rgb(56.90918%, 38.711548%, 21.009827%)" stop-opacity="1"/>
<stop offset="0.0625" stop-color="rgb(56.748962%, 38.554382%, 20.895386%)" stop-opacity="1"/>
<stop offset="0.078125" stop-color="rgb(56.590271%, 38.395691%, 20.780945%)" stop-opacity="1"/>
<stop offset="0.09375" stop-color="rgb(56.43158%, 38.238525%, 20.664978%)" stop-opacity="1"/>
<stop offset="0.109375" stop-color="rgb(56.272888%, 38.082886%, 20.552063%)" stop-opacity="1"/>
<stop offset="0.125" stop-color="rgb(56.114197%, 37.92572%, 20.439148%)" stop-opacity="1"/>
<stop offset="0.140625" stop-color="rgb(55.957031%, 37.770081%, 20.324707%)" stop-opacity="1"/>
<stop offset="0.15625" stop-color="rgb(55.79834%, 37.614441%, 20.211792%)" stop-opacity="1"/>
<stop offset="0.171875" stop-color="rgb(55.639648%, 37.457275%, 20.100403%)" stop-opacity="1"/>
<stop offset="0.1875" stop-color="rgb(55.482483%, 37.303162%, 19.987488%)" stop-opacity="1"/>
<stop offset="0.203125" stop-color="rgb(55.325317%, 37.149048%, 19.876099%)" stop-opacity="1"/>
<stop offset="0.21875" stop-color="rgb(55.168152%, 36.994934%, 19.764709%)" stop-opacity="1"/>
<stop offset="0.234375" stop-color="rgb(55.012512%, 36.84082%, 19.654846%)" stop-opacity="1"/>
<stop offset="0.25" stop-color="rgb(54.855347%, 36.688232%, 19.544983%)" stop-opacity="1"/>
<stop offset="0.265625" stop-color="rgb(54.698181%, 36.534119%, 19.43512%)" stop-opacity="1"/>
<stop offset="0.28125" stop-color="rgb(54.542542%, 36.381531%, 19.325256%)" stop-opacity="1"/>
<stop offset="0.296875" stop-color="rgb(54.385376%, 36.230469%, 19.215393%)" stop-opacity="1"/>
<stop offset="0.3125" stop-color="rgb(54.229736%, 36.077881%, 19.107056%)" stop-opacity="1"/>
<stop offset="0.328125" stop-color="rgb(54.074097%, 35.926819%, 18.998718%)" stop-opacity="1"/>
<stop offset="0.34375" stop-color="rgb(53.918457%, 35.774231%, 18.890381%)" stop-opacity="1"/>
<stop offset="0.359375" stop-color="rgb(53.761292%, 35.623169%, 18.783569%)" stop-opacity="1"/>
<stop offset="0.375" stop-color="rgb(53.605652%, 35.473633%, 18.676758%)" stop-opacity="1"/>
<stop offset="0.390625" stop-color="rgb(53.451538%, 35.322571%, 18.56842%)" stop-opacity="1"/>
<stop offset="0.40625" stop-color="rgb(53.295898%, 35.173035%, 18.463135%)" stop-opacity="1"/>
<stop offset="0.421875" stop-color="rgb(53.141785%, 35.023499%, 18.357849%)" stop-opacity="1"/>
<stop offset="0.4375" stop-color="rgb(52.987671%, 34.873962%, 18.251038%)" stop-opacity="1"/>
<stop offset="0.453125" stop-color="rgb(52.832031%, 34.725952%, 18.145752%)" stop-opacity="1"/>
<stop offset="0.46875" stop-color="rgb(52.677917%, 34.577942%, 18.041992%)" stop-opacity="1"/>
<stop offset="0.484375" stop-color="rgb(52.52533%, 34.429932%, 17.936707%)" stop-opacity="1"/>
<stop offset="0.5" stop-color="rgb(52.371216%, 34.281921%, 17.832947%)" stop-opacity="1"/>
<stop offset="0.515625" stop-color="rgb(52.217102%, 34.135437%, 17.729187%)" stop-opacity="1"/>
<stop offset="0.53125" stop-color="rgb(52.064514%, 33.988953%, 17.626953%)" stop-opacity="1"/>
<stop offset="0.546875" stop-color="rgb(51.911926%, 33.842468%, 17.524719%)" stop-opacity="1"/>
<stop offset="0.5625" stop-color="rgb(51.757812%, 33.695984%, 17.422485%)" stop-opacity="1"/>
<stop offset="0.578125" stop-color="rgb(51.605225%, 33.5495%, 17.318726%)" stop-opacity="1"/>
<stop offset="0.59375" stop-color="rgb(51.452637%, 33.404541%, 17.218018%)" stop-opacity="1"/>
<stop offset="0.609375" stop-color="rgb(51.300049%, 33.259583%, 17.11731%)" stop-opacity="1"/>
<stop offset="0.625" stop-color="rgb(51.147461%, 33.114624%, 17.015076%)" stop-opacity="1"/>
<stop offset="0.640625" stop-color="rgb(50.994873%, 32.969666%, 16.914368%)" stop-opacity="1"/>
<stop offset="0.65625" stop-color="rgb(50.843811%, 32.826233%, 16.815186%)" stop-opacity="1"/>
<stop offset="0.671875" stop-color="rgb(50.691223%, 32.6828%, 16.716003%)" stop-opacity="1"/>
<stop offset="0.6875" stop-color="rgb(50.540161%, 32.539368%, 16.615295%)" stop-opacity="1"/>
<stop offset="0.703125" stop-color="rgb(50.389099%, 32.395935%, 16.517639%)" stop-opacity="1"/>
<stop offset="0.71875" stop-color="rgb(50.236511%, 32.254028%, 16.418457%)" stop-opacity="1"/>
<stop offset="0.734375" stop-color="rgb(50.086975%, 32.110596%, 16.320801%)" stop-opacity="1"/>
<stop offset="0.75" stop-color="rgb(49.935913%, 31.968689%, 16.221619%)" stop-opacity="1"/>
<stop offset="0.765625" stop-color="rgb(49.784851%, 31.826782%, 16.125488%)" stop-opacity="1"/>
<stop offset="0.78125" stop-color="rgb(49.635315%, 31.686401%, 16.027832%)" stop-opacity="1"/>
<stop offset="0.796875" stop-color="rgb(49.484253%, 31.546021%, 15.931702%)" stop-opacity="1"/>
<stop offset="0.8125" stop-color="rgb(49.334717%, 31.40564%, 15.835571%)" stop-opacity="1"/>
<stop offset="0.828125" stop-color="rgb(49.185181%, 31.265259%, 15.739441%)" stop-opacity="1"/>
<stop offset="0.84375" stop-color="rgb(49.035645%, 31.126404%, 15.643311%)" stop-opacity="1"/>
<stop offset="0.859375" stop-color="rgb(48.884583%, 30.986023%, 15.548706%)" stop-opacity="1"/>
<stop offset="0.875" stop-color="rgb(48.736572%, 30.847168%, 15.452576%)" stop-opacity="1"/>
<stop offset="0.890625" stop-color="rgb(48.587036%, 30.708313%, 15.359497%)" stop-opacity="1"/>
<stop offset="0.90625" stop-color="rgb(48.4375%, 30.569458%, 15.264893%)" stop-opacity="1"/>
<stop offset="0.921875" stop-color="rgb(48.28949%, 30.432129%, 15.171814%)" stop-opacity="1"/>
<stop offset="0.9375" stop-color="rgb(48.139954%, 30.293274%, 15.077209%)" stop-opacity="1"/>
<stop offset="0.953125" stop-color="rgb(47.991943%, 30.155945%, 14.984131%)" stop-opacity="1"/>
<stop offset="0.96875" stop-color="rgb(47.843933%, 30.020142%, 14.892578%)" stop-opacity="1"/>
<stop offset="0.984375" stop-color="rgb(47.695923%, 29.882812%, 14.7995%)" stop-opacity="1"/>
<stop offset="1" stop-color="rgb(47.547913%, 29.747009%, 14.707947%)" stop-opacity="1"/>
</linearGradient>
<clipPath id="clip-3">
<path clip-rule="nonzero" d="M 1123 540 L 1180 540 L 1180 572 L 1123 572 Z M 1123 540 "/>
</clipPath>
<clipPath id="clip-4">
<path clip-rule="nonzero" d="M 1157.851562 570.679688 C 1166.480469 572.679688 1174 571.949219 1179.039062 570.96875 C 1175.601562 556.359375 1165.019531 544.890625 1151.460938 541.359375 C 1137.96875 537.851562 1126.75 543.558594 1123.878906 545.128906 C 1126.351562 549.199219 1137.101562 565.890625 1157.851562 570.679688 Z M 1157.851562 570.679688 "/>
</clipPath>
<clipPath id="clip-5">
<path clip-rule="nonzero" d="M 1157.851562 570.679688 C 1166.480469 572.679688 1174 571.949219 1179.039062 570.96875 C 1175.601562 556.359375 1165.019531 544.890625 1151.460938 541.359375 C 1137.96875 537.851562 1126.75 543.558594 1123.878906 545.128906 C 1126.351562 549.199219 1137.101562 565.890625 1157.851562 570.679688 "/>
</clipPath>
<linearGradient id="linear-pattern-1" gradientUnits="userSpaceOnUse" x1="0.169528" y1="0" x2="0.218705" y2="0" gradientTransform="matrix(-604, 1016, -1016, -604, 1269.93, 358.77)">
<stop offset="0" stop-color="rgb(67.247009%, 49.345398%, 29.074097%)" stop-opacity="1"/>
<stop offset="0.125" stop-color="rgb(67.114258%, 49.203491%, 28.962708%)" stop-opacity="1"/>
<stop offset="0.25" stop-color="rgb(66.845703%, 48.919678%, 28.739929%)" stop-opacity="1"/>
<stop offset="0.375" stop-color="rgb(66.577148%, 48.635864%, 28.518677%)" stop-opacity="1"/>
<stop offset="0.5" stop-color="rgb(66.311646%, 48.353577%, 28.297424%)" stop-opacity="1"/>
<stop offset="0.625" stop-color="rgb(66.044617%, 48.072815%, 28.079224%)" stop-opacity="1"/>
<stop offset="0.75" stop-color="rgb(65.779114%, 47.792053%, 27.861023%)" stop-opacity="1"/>
<stop offset="0.875" stop-color="rgb(65.512085%, 47.512817%, 27.642822%)" stop-opacity="1"/>
<stop offset="1" stop-color="rgb(65.248108%, 47.233582%, 27.427673%)" stop-opacity="1"/>
</linearGradient>
<clipPath id="clip-6">
<path clip-rule="nonzero" d="M 812 535 L 1188 535 L 1188 826 L 812 826 Z M 812 535 "/>
</clipPath>
<clipPath id="clip-7">
<path clip-rule="nonzero" d="M 1123.71875 581.851562 C 1129.339844 581.851562 1129.328125 590.558594 1123.71875 590.558594 C 1118.101562 590.558594 1118.109375 581.851562 1123.71875 581.851562 Z M 1158.160156 737.898438 C 1159.589844 730.238281 1163.011719 706.230469 1148.460938 685.058594 C 1146.941406 682.839844 1143.140625 677.640625 1137.101562 672.691406 C 1113.5 653.398438 1081.03125 658.808594 1073.21875 660.320312 C 1071.128906 655.800781 1068.300781 650.921875 1064.480469 646.128906 C 1069.390625 647.53125 1074.578125 648.28125 1079.941406 648.28125 C 1111.101562 648.28125 1136.359375 623.019531 1136.359375 591.859375 C 1136.359375 560.691406 1111.101562 535.429688 1079.941406 535.429688 C 1048.78125 535.429688 1023.519531 560.691406 1023.519531 591.859375 C 1023.519531 604.140625 1027.449219 615.511719 1034.109375 624.769531 C 1021.460938 620.261719 1008.910156 619.5 999.90625 619.761719 C 984.71875 619.320312 959.441406 621.789062 940.632812 640.25 C 933.96875 646.789062 929.550781 653.929688 926.585938 660.320312 C 918.78125 658.808594 886.304688 653.398438 862.714844 672.691406 C 856.667969 677.640625 852.867188 682.839844 851.34375 685.058594 C 836.796875 706.230469 840.222656 730.238281 841.644531 737.898438 C 837.917969 739.289062 825.9375 744.269531 818.234375 757.300781 C 817.511719 758.519531 808.097656 775.039062 814.222656 794.078125 C 819.375 810.089844 833.6875 822.140625 851.390625 825.980469 C 851.390625 825.980469 851.390625 825.988281 851.394531 826 L 1149.648438 826 C 1149.660156 825.890625 1149.671875 825.789062 1149.691406 825.691406 C 1166.800781 821.558594 1180.558594 809.710938 1185.578125 794.078125 C 1191.710938 775.039062 1182.300781 758.519531 1181.570312 757.300781 C 1173.871094 744.269531 1161.890625 739.289062 1158.160156 737.898438 Z M 1158.160156 737.898438 "/>
</clipPath>
<clipPath id="clip-8">
<path clip-rule="nonzero" d="M 1123.71875 581.851562 C 1129.339844 581.851562 1129.328125 590.558594 1123.71875 590.558594 C 1118.101562 590.558594 1118.109375 581.851562 1123.71875 581.851562 Z M 1158.160156 737.898438 C 1159.589844 730.238281 1163.011719 706.230469 1148.460938 685.058594 C 1146.941406 682.839844 1143.140625 677.640625 1137.101562 672.691406 C 1113.5 653.398438 1081.03125 658.808594 1073.21875 660.320312 C 1071.128906 655.800781 1068.300781 650.921875 1064.480469 646.128906 C 1069.390625 647.53125 1074.578125 648.28125 1079.941406 648.28125 C 1111.101562 648.28125 1136.359375 623.019531 1136.359375 591.859375 C 1136.359375 560.691406 1111.101562 535.429688 1079.941406 535.429688 C 1048.78125 535.429688 1023.519531 560.691406 1023.519531 591.859375 C 1023.519531 604.140625 1027.449219 615.511719 1034.109375 624.769531 C 1021.460938 620.261719 1008.910156 619.5 999.90625 619.761719 C 984.71875 619.320312 959.441406 621.789062 940.632812 640.25 C 933.96875 646.789062 929.550781 653.929688 926.585938 660.320312 C 918.78125 658.808594 886.304688 653.398438 862.714844 672.691406 C 856.667969 677.640625 852.867188 682.839844 851.34375 685.058594 C 836.796875 706.230469 840.222656 730.238281 841.644531 737.898438 C 837.917969 739.289062 825.9375 744.269531 818.234375 757.300781 C 817.511719 758.519531 808.097656 775.039062 814.222656 794.078125 C 819.375 810.089844 833.6875 822.140625 851.390625 825.980469 C 851.390625 825.980469 851.390625 825.988281 851.394531 826 L 1149.648438 826 C 1149.660156 825.890625 1149.671875 825.789062 1149.691406 825.691406 C 1166.800781 821.558594 1180.558594 809.710938 1185.578125 794.078125 C 1191.710938 775.039062 1182.300781 758.519531 1181.570312 757.300781 C 1173.871094 744.269531 1161.890625 739.289062 1158.160156 737.898438 "/>
</clipPath>
<linearGradient id="linear-pattern-2" gradientUnits="userSpaceOnUse" x1="0.162296" y1="0" x2="0.539457" y2="0" gradientTransform="matrix(-604, 1016, -1016, -604, 1251.81, 347.99)">
<stop offset="0" stop-color="rgb(67.562866%, 49.682617%, 29.336548%)" stop-opacity="1"/>
<stop offset="0.015625" stop-color="rgb(67.434692%, 49.545288%, 29.229736%)" stop-opacity="1"/>
<stop offset="0.03125" stop-color="rgb(67.176819%, 49.27063%, 29.014587%)" stop-opacity="1"/>
<stop offset="0.046875" stop-color="rgb(66.920471%, 48.999023%, 28.80249%)" stop-opacity="1"/>
<stop offset="0.0625" stop-color="rgb(66.662598%, 48.727417%, 28.588867%)" stop-opacity="1"/>
<stop offset="0.078125" stop-color="rgb(66.407776%, 48.455811%, 28.378296%)" stop-opacity="1"/>
<stop offset="0.09375" stop-color="rgb(66.151428%, 48.18573%, 28.166199%)" stop-opacity="1"/>
<stop offset="0.109375" stop-color="rgb(65.898132%, 47.915649%, 27.957153%)" stop-opacity="1"/>
<stop offset="0.125" stop-color="rgb(65.643311%, 47.648621%, 27.748108%)" stop-opacity="1"/>
<stop offset="0.140625" stop-color="rgb(65.386963%, 47.380066%, 27.540588%)" stop-opacity="1"/>
<stop offset="0.15625" stop-color="rgb(65.133667%, 47.114563%, 27.334595%)" stop-opacity="1"/>
<stop offset="0.171875" stop-color="rgb(64.880371%, 46.84906%, 27.128601%)" stop-opacity="1"/>
<stop offset="0.1875" stop-color="rgb(64.627075%, 46.583557%, 26.924133%)" stop-opacity="1"/>
<stop offset="0.203125" stop-color="rgb(64.375305%, 46.31958%, 26.721191%)" stop-opacity="1"/>
<stop offset="0.21875" stop-color="rgb(64.123535%, 46.057129%, 26.519775%)" stop-opacity="1"/>
<stop offset="0.234375" stop-color="rgb(63.871765%, 45.794678%, 26.318359%)" stop-opacity="1"/>
<stop offset="0.25" stop-color="rgb(63.621521%, 45.533752%, 26.118469%)" stop-opacity="1"/>
<stop offset="0.265625" stop-color="rgb(63.369751%, 45.274353%, 25.918579%)" stop-opacity="1"/>
<stop offset="0.28125" stop-color="rgb(63.119507%, 45.013428%, 25.720215%)" stop-opacity="1"/>
<stop offset="0.296875" stop-color="rgb(62.869263%, 44.755554%, 25.523376%)" stop-opacity="1"/>
<stop offset="0.3125" stop-color="rgb(62.620544%, 44.497681%, 25.326538%)" stop-opacity="1"/>
<stop offset="0.328125" stop-color="rgb(62.371826%, 44.241333%, 25.132751%)" stop-opacity="1"/>
<stop offset="0.34375" stop-color="rgb(62.124634%, 43.984985%, 24.937439%)" stop-opacity="1"/>
<stop offset="0.359375" stop-color="rgb(61.877441%, 43.730164%, 24.743652%)" stop-opacity="1"/>
<stop offset="0.375" stop-color="rgb(61.628723%, 43.476868%, 24.552917%)" stop-opacity="1"/>
<stop offset="0.390625" stop-color="rgb(61.383057%, 43.223572%, 24.360657%)" stop-opacity="1"/>
<stop offset="0.40625" stop-color="rgb(61.135864%, 42.971802%, 24.171448%)" stop-opacity="1"/>
<stop offset="0.421875" stop-color="rgb(60.890198%, 42.720032%, 23.982239%)" stop-opacity="1"/>
<stop offset="0.4375" stop-color="rgb(60.643005%, 42.468262%, 23.794556%)" stop-opacity="1"/>
<stop offset="0.453125" stop-color="rgb(60.398865%, 42.219543%, 23.606873%)" stop-opacity="1"/>
<stop offset="0.46875" stop-color="rgb(60.153198%, 41.970825%, 23.420715%)" stop-opacity="1"/>
<stop offset="0.484375" stop-color="rgb(59.909058%, 41.722107%, 23.234558%)" stop-opacity="1"/>
<stop offset="0.5" stop-color="rgb(59.664917%, 41.47644%, 23.051453%)" stop-opacity="1"/>
<stop offset="0.515625" stop-color="rgb(59.422302%, 41.230774%, 22.868347%)" stop-opacity="1"/>
<stop offset="0.53125" stop-color="rgb(59.179688%, 40.985107%, 22.685242%)" stop-opacity="1"/>
<stop offset="0.546875" stop-color="rgb(58.937073%, 40.740967%, 22.503662%)" stop-opacity="1"/>
<stop offset="0.5625" stop-color="rgb(58.695984%, 40.496826%, 22.323608%)" stop-opacity="1"/>
<stop offset="0.578125" stop-color="rgb(58.453369%, 40.252686%, 22.143555%)" stop-opacity="1"/>
<stop offset="0.59375" stop-color="rgb(58.21228%, 40.011597%, 21.965027%)" stop-opacity="1"/>
<stop offset="0.609375" stop-color="rgb(57.971191%, 39.772034%, 21.788025%)" stop-opacity="1"/>
<stop offset="0.625" stop-color="rgb(57.731628%, 39.530945%, 21.611023%)" stop-opacity="1"/>
<stop offset="0.640625" stop-color="rgb(57.492065%, 39.291382%, 21.435547%)" stop-opacity="1"/>
<stop offset="0.65625" stop-color="rgb(57.252502%, 39.053345%, 21.260071%)" stop-opacity="1"/>
<stop offset="0.671875" stop-color="rgb(57.012939%, 38.815308%, 21.087646%)" stop-opacity="1"/>
<stop offset="0.6875" stop-color="rgb(56.774902%, 38.578796%, 20.913696%)" stop-opacity="1"/>
<stop offset="0.703125" stop-color="rgb(56.536865%, 38.342285%, 20.742798%)" stop-opacity="1"/>
<stop offset="0.71875" stop-color="rgb(56.298828%, 38.1073%, 20.570374%)" stop-opacity="1"/>
<stop offset="0.734375" stop-color="rgb(56.060791%, 37.87384%, 20.401001%)" stop-opacity="1"/>
<stop offset="0.75" stop-color="rgb(55.82428%, 37.640381%, 20.231628%)" stop-opacity="1"/>
<stop offset="0.765625" stop-color="rgb(55.587769%, 37.406921%, 20.063782%)" stop-opacity="1"/>
<stop offset="0.78125" stop-color="rgb(55.352783%, 37.176514%, 19.895935%)" stop-opacity="1"/>
<stop offset="0.796875" stop-color="rgb(55.117798%, 36.94458%, 19.729614%)" stop-opacity="1"/>
<stop offset="0.8125" stop-color="rgb(54.882812%, 36.715698%, 19.564819%)" stop-opacity="1"/>
<stop offset="0.828125" stop-color="rgb(54.649353%, 36.485291%, 19.400024%)" stop-opacity="1"/>
<stop offset="0.84375" stop-color="rgb(54.414368%, 36.257935%, 19.236755%)" stop-opacity="1"/>
<stop offset="0.859375" stop-color="rgb(54.180908%, 36.030579%, 19.073486%)" stop-opacity="1"/>
<stop offset="0.875" stop-color="rgb(53.945923%, 35.803223%, 18.911743%)" stop-opacity="1"/>
<stop offset="0.890625" stop-color="rgb(53.713989%, 35.577393%, 18.75%)" stop-opacity="1"/>
<stop offset="0.90625" stop-color="rgb(53.482056%, 35.351562%, 18.589783%)" stop-opacity="1"/>
<stop offset="0.921875" stop-color="rgb(53.250122%, 35.127258%, 18.431091%)" stop-opacity="1"/>
<stop offset="0.9375" stop-color="rgb(53.018188%, 34.90448%, 18.2724%)" stop-opacity="1"/>
<stop offset="0.953125" stop-color="rgb(52.786255%, 34.681702%, 18.115234%)" stop-opacity="1"/>
<stop offset="0.96875" stop-color="rgb(52.555847%, 34.460449%, 17.959595%)" stop-opacity="1"/>
<stop offset="0.984375" stop-color="rgb(52.325439%, 34.239197%, 17.802429%)" stop-opacity="1"/>
<stop offset="1" stop-color="rgb(52.096558%, 34.01947%, 17.648315%)" stop-opacity="1"/>
</linearGradient>
<clipPath id="clip-9">
<path clip-rule="nonzero" d="M 567 436 L 1433 436 L 1433 1301 L 567 1301 Z M 567 436 "/>
</clipPath>
<clipPath id="clip-10">
<path clip-rule="nonzero" d="M 1346.328125 1040 C 1326.679688 1035.011719 1306.519531 1040.199219 1293.789062 1043.46875 L 1293 1043.679688 C 1270.070312 1049.570312 1246.671875 1054.878906 1223.441406 1059.460938 C 1222.730469 1059.601562 1222.21875 1059.328125 1221.921875 1059.078125 C 1221.609375 1058.828125 1221.238281 1058.371094 1221.238281 1057.640625 C 1221.238281 1046.53125 1212.191406 1037.480469 1201.078125 1037.480469 L 798.730469 1037.480469 C 787.613281 1037.480469 778.570312 1046.53125 778.570312 1057.640625 C 778.570312 1058.371094 778.199219 1058.828125 777.890625 1059.078125 C 777.585938 1059.328125 777.074219 1059.601562 776.371094 1059.460938 C 753.140625 1054.878906 729.738281 1049.570312 706.808594 1043.679688 L 706.019531 1043.46875 C 693.289062 1040.199219 673.128906 1035.011719 653.480469 1040 C 627.769531 988.261719 613.3125 929.929688 613.3125 868.21875 C 613.3125 654.71875 786.394531 481.628906 999.902344 481.628906 C 1052.808594 481.628906 1103.21875 492.269531 1149.140625 511.5 C 1142.570312 517.070312 1138.171875 521.269531 1138.171875 521.269531 C 1135.679688 523.949219 1124.308594 536.199219 1122.148438 540.019531 C 1128.789062 533.929688 1136.691406 527.441406 1145.960938 521.078125 C 1159.460938 511.808594 1172.308594 505.261719 1183.230469 500.589844 C 1178.011719 503.929688 1172.421875 507.890625 1166.671875 512.578125 C 1164.871094 514.039062 1163.171875 515.5 1161.511719 516.949219 C 1294.308594 578.148438 1386.488281 712.410156 1386.488281 868.21875 C 1386.488281 929.929688 1372.039062 988.261719 1346.328125 1040 Z M 1371.640625 1096.660156 C 1371.929688 1103.171875 1370.421875 1109.371094 1367.171875 1115.078125 C 1362.589844 1123.121094 1355.960938 1129.199219 1347.988281 1132.660156 C 1331.5 1139.828125 1311.550781 1134.691406 1298.351562 1131.289062 L 1297.558594 1131.089844 C 1293.730469 1130.101562 1289.890625 1129.140625 1286.039062 1128.191406 C 1266.480469 1123.359375 1246.671875 1118.949219 1226.980469 1115.070312 C 1221.050781 1113.898438 1214.960938 1115.429688 1210.289062 1119.269531 C 1205.609375 1123.121094 1202.929688 1128.800781 1202.929688 1134.859375 C 1202.929688 1135.878906 1202.101562 1136.710938 1201.078125 1136.710938 L 798.730469 1136.710938 C 797.710938 1136.710938 796.882812 1135.878906 796.882812 1134.859375 C 796.882812 1128.800781 794.199219 1123.121094 789.519531 1119.269531 C 785.875 1116.28125 781.371094 1114.691406 776.753906 1114.691406 C 775.449219 1114.691406 774.136719 1114.808594 772.832031 1115.070312 C 753.136719 1118.949219 733.324219 1123.359375 713.773438 1128.191406 C 709.921875 1129.140625 706.078125 1130.101562 702.25 1131.089844 L 701.453125 1131.289062 C 688.257812 1134.691406 668.3125 1139.828125 651.820312 1132.660156 C 643.851562 1129.199219 637.21875 1123.121094 632.644531 1115.078125 C 629.386719 1109.371094 627.882812 1103.171875 628.171875 1096.660156 L 628.191406 1096.25 L 628.171875 1095.839844 C 627.882812 1089.328125 629.386719 1083.128906 632.644531 1077.421875 C 637.222656 1069.378906 643.851562 1063.300781 651.820312 1059.839844 C 655.222656 1058.359375 658.773438 1057.410156 662.382812 1056.859375 C 676.257812 1054.730469 690.980469 1058.511719 701.453125 1061.210938 L 702.25 1061.410156 C 725.511719 1067.390625 749.261719 1072.78125 772.832031 1077.429688 C 777.875 1078.421875 783.023438 1077.460938 787.324219 1074.789062 L 798.730469 1106.46875 L 798.730469 1055.789062 L 1201.078125 1055.789062 C 1202.101562 1055.789062 1202.929688 1056.621094 1202.929688 1057.640625 C 1202.929688 1063.699219 1205.609375 1069.378906 1210.289062 1073.21875 C 1214.960938 1077.070312 1221.039062 1078.601562 1226.980469 1077.429688 C 1250.550781 1072.78125 1274.300781 1067.390625 1297.558594 1061.410156 L 1298.359375 1061.210938 C 1308.828125 1058.511719 1323.550781 1054.730469 1337.429688 1056.859375 C 1341.03125 1057.410156 1344.589844 1058.359375 1347.988281 1059.839844 C 1355.960938 1063.300781 1362.589844 1069.378906 1367.171875 1077.421875 C 1370.421875 1083.128906 1371.929688 1089.328125 1371.640625 1095.839844 L 1371.621094 1096.25 Z M 999.902344 1254.820312 C 894.117188 1254.820312 798.257812 1212.320312 728.453125 1143.46875 C 744.367188 1139.679688 760.410156 1136.179688 776.375 1133.039062 C 777.074219 1132.898438 777.585938 1133.171875 777.890625 1133.421875 C 778.199219 1133.671875 778.570312 1134.128906 778.570312 1134.859375 C 778.570312 1145.96875 787.613281 1155.019531 798.730469 1155.019531 L 1201.078125 1155.019531 C 1212.191406 1155.019531 1221.238281 1145.96875 1221.238281 1134.859375 C 1221.238281 1134.128906 1221.609375 1133.671875 1221.921875 1133.421875 C 1222.21875 1133.171875 1222.738281 1132.898438 1223.441406 1133.039062 C 1239.398438 1136.179688 1255.441406 1139.679688 1271.351562 1143.46875 C 1201.550781 1212.320312 1105.691406 1254.820312 999.902344 1254.820312 Z M 1430.410156 906.390625 C 1434.859375 860.96875 1431.128906 814.480469 1421.03125 770.019531 C 1402.589844 688.890625 1358.75 612.789062 1298.46875 555.53125 C 1277.21875 535.351562 1253.859375 517.078125 1228.898438 501.46875 C 1229.03125 493.011719 1227.039062 484.109375 1222.761719 477.480469 C 1216.460938 467.710938 1207.070312 459.101562 1195.398438 456.441406 C 1191.351562 455.898438 1187.289062 455.359375 1183.230469 454.808594 C 1174.96875 454.828125 1167.269531 456.921875 1160.128906 461.058594 C 1157.839844 462.039062 1155.578125 463.089844 1153.328125 464.148438 C 1117.238281 450.121094 1079.628906 442.109375 1041.070312 438.019531 C 1004.511719 434.148438 968.40625 436.238281 932.113281 441.460938 C 904.132812 445.488281 876.601562 452.621094 850.179688 462.679688 C 820.769531 473.878906 792.289062 487.441406 765.902344 504.640625 C 713.640625 538.730469 669.246094 583.238281 635.386719 635.671875 C 618.410156 661.960938 604.988281 690.328125 593.945312 719.589844 C 583.890625 746.238281 576.824219 774 572.890625 802.210938 C 567.832031 838.519531 565.859375 874.539062 569.886719 911.089844 C 574.347656 951.609375 583.039062 991.070312 598.683594 1028.800781 C 600.246094 1032.570312 601.820312 1036.328125 603.425781 1040.070312 C 598.648438 1045.640625 594.191406 1051.691406 591.140625 1058.339844 C 585.394531 1070.878906 582.539062 1082.050781 582.402344 1096.050781 C 582.328125 1103.738281 583.136719 1111.609375 585.117188 1119.050781 C 588.625 1132.238281 595.492188 1142.808594 604.078125 1153.101562 C 615.140625 1166.359375 632.351562 1176.449219 649.3125 1179.640625 C 666.316406 1182.851562 682.398438 1182.070312 699.144531 1178.800781 C 759.695312 1237.160156 837.820312 1278.710938 920.859375 1293.191406 C 944.539062 1297.320312 968.59375 1300.089844 992.640625 1300.53125 C 1016.96875 1300.96875 1040.929688 1298.699219 1065 1295.359375 C 1108.050781 1289.410156 1149.25 1275.839844 1188.460938 1257.25 C 1229.710938 1237.679688 1267.808594 1210.488281 1300.660156 1178.800781 C 1309.289062 1180.5 1318.140625 1181.769531 1326.910156 1182.019531 C 1330.269531 1182.121094 1333.578125 1181.910156 1336.910156 1181.5 C 1343.710938 1180.671875 1350.910156 1180.160156 1357.460938 1177.859375 C 1378.710938 1170.390625 1398.710938 1155.839844 1408.371094 1134.839844 C 1414.199219 1122.148438 1417.539062 1110.191406 1417.398438 1096.050781 C 1417.28125 1082.679688 1414.648438 1070.738281 1409.050781 1058.960938 C 1408.371094 1057.378906 1407.589844 1055.828125 1406.691406 1054.308594 C 1406.121094 1053.261719 1405.46875 1052.230469 1404.78125 1051.21875 C 1402.269531 1047.328125 1399.5 1043.671875 1396.480469 1040.25 C 1404 1022.960938 1410.539062 1005.199219 1415.71875 987.121094 C 1423.261719 960.78125 1427.738281 933.640625 1430.410156 906.390625 Z M 1430.410156 906.390625 "/>
</clipPath>
<clipPath id="clip-11">
<path clip-rule="nonzero" d="M 1346.328125 1040 C 1326.679688 1035.011719 1306.519531 1040.199219 1293.789062 1043.46875 L 1293 1043.679688 C 1270.070312 1049.570312 1246.671875 1054.878906 1223.441406 1059.460938 C 1222.730469 1059.601562 1222.21875 1059.328125 1221.921875 1059.078125 C 1221.609375 1058.828125 1221.238281 1058.371094 1221.238281 1057.640625 C 1221.238281 1046.53125 1212.191406 1037.480469 1201.078125 1037.480469 L 798.730469 1037.480469 C 787.613281 1037.480469 778.570312 1046.53125 778.570312 1057.640625 C 778.570312 1058.371094 778.199219 1058.828125 777.890625 1059.078125 C 777.585938 1059.328125 777.074219 1059.601562 776.371094 1059.460938 C 753.140625 1054.878906 729.738281 1049.570312 706.808594 1043.679688 L 706.019531 1043.46875 C 693.289062 1040.199219 673.128906 1035.011719 653.480469 1040 C 627.769531 988.261719 613.3125 929.929688 613.3125 868.21875 C 613.3125 654.71875 786.394531 481.628906 999.902344 481.628906 C 1052.808594 481.628906 1103.21875 492.269531 1149.140625 511.5 C 1142.570312 517.070312 1138.171875 521.269531 1138.171875 521.269531 C 1135.679688 523.949219 1124.308594 536.199219 1122.148438 540.019531 C 1128.789062 533.929688 1136.691406 527.441406 1145.960938 521.078125 C 1159.460938 511.808594 1172.308594 505.261719 1183.230469 500.589844 C 1178.011719 503.929688 1172.421875 507.890625 1166.671875 512.578125 C 1164.871094 514.039062 1163.171875 515.5 1161.511719 516.949219 C 1294.308594 578.148438 1386.488281 712.410156 1386.488281 868.21875 C 1386.488281 929.929688 1372.039062 988.261719 1346.328125 1040 Z M 1371.640625 1096.660156 C 1371.929688 1103.171875 1370.421875 1109.371094 1367.171875 1115.078125 C 1362.589844 1123.121094 1355.960938 1129.199219 1347.988281 1132.660156 C 1331.5 1139.828125 1311.550781 1134.691406 1298.351562 1131.289062 L 1297.558594 1131.089844 C 1293.730469 1130.101562 1289.890625 1129.140625 1286.039062 1128.191406 C 1266.480469 1123.359375 1246.671875 1118.949219 1226.980469 1115.070312 C 1221.050781 1113.898438 1214.960938 1115.429688 1210.289062 1119.269531 C 1205.609375 1123.121094 1202.929688 1128.800781 1202.929688 1134.859375 C 1202.929688 1135.878906 1202.101562 1136.710938 1201.078125 1136.710938 L 798.730469 1136.710938 C 797.710938 1136.710938 796.882812 1135.878906 796.882812 1134.859375 C 796.882812 1128.800781 794.199219 1123.121094 789.519531 1119.269531 C 785.875 1116.28125 781.371094 1114.691406 776.753906 1114.691406 C 775.449219 1114.691406 774.136719 1114.808594 772.832031 1115.070312 C 753.136719 1118.949219 733.324219 1123.359375 713.773438 1128.191406 C 709.921875 1129.140625 706.078125 1130.101562 702.25 1131.089844 L 701.453125 1131.289062 C 688.257812 1134.691406 668.3125 1139.828125 651.820312 1132.660156 C 643.851562 1129.199219 637.21875 1123.121094 632.644531 1115.078125 C 629.386719 1109.371094 627.882812 1103.171875 628.171875 1096.660156 L 628.191406 1096.25 L 628.171875 1095.839844 C 627.882812 1089.328125 629.386719 1083.128906 632.644531 1077.421875 C 637.222656 1069.378906 643.851562 1063.300781 651.820312 1059.839844 C 655.222656 1058.359375 658.773438 1057.410156 662.382812 1056.859375 C 676.257812 1054.730469 690.980469 1058.511719 701.453125 1061.210938 L 702.25 1061.410156 C 725.511719 1067.390625 749.261719 1072.78125 772.832031 1077.429688 C 777.875 1078.421875 783.023438 1077.460938 787.324219 1074.789062 L 798.730469 1106.46875 L 798.730469 1055.789062 L 1201.078125 1055.789062 C 1202.101562 1055.789062 1202.929688 1056.621094 1202.929688 1057.640625 C 1202.929688 1063.699219 1205.609375 1069.378906 1210.289062 1073.21875 C 1214.960938 1077.070312 1221.039062 1078.601562 1226.980469 1077.429688 C 1250.550781 1072.78125 1274.300781 1067.390625 1297.558594 1061.410156 L 1298.359375 1061.210938 C 1308.828125 1058.511719 1323.550781 1054.730469 1337.429688 1056.859375 C 1341.03125 1057.410156 1344.589844 1058.359375 1347.988281 1059.839844 C 1355.960938 1063.300781 1362.589844 1069.378906 1367.171875 1077.421875 C 1370.421875 1083.128906 1371.929688 1089.328125 1371.640625 1095.839844 L 1371.621094 1096.25 Z M 999.902344 1254.820312 C 894.117188 1254.820312 798.257812 1212.320312 728.453125 1143.46875 C 744.367188 1139.679688 760.410156 1136.179688 776.375 1133.039062 C 777.074219 1132.898438 777.585938 1133.171875 777.890625 1133.421875 C 778.199219 1133.671875 778.570312 1134.128906 778.570312 1134.859375 C 778.570312 1145.96875 787.613281 1155.019531 798.730469 1155.019531 L 1201.078125 1155.019531 C 1212.191406 1155.019531 1221.238281 1145.96875 1221.238281 1134.859375 C 1221.238281 1134.128906 1221.609375 1133.671875 1221.921875 1133.421875 C 1222.21875 1133.171875 1222.738281 1132.898438 1223.441406 1133.039062 C 1239.398438 1136.179688 1255.441406 1139.679688 1271.351562 1143.46875 C 1201.550781 1212.320312 1105.691406 1254.820312 999.902344 1254.820312 Z M 1430.410156 906.390625 C 1434.859375 860.96875 1431.128906 814.480469 1421.03125 770.019531 C 1402.589844 688.890625 1358.75 612.789062 1298.46875 555.53125 C 1277.21875 535.351562 1253.859375 517.078125 1228.898438 501.46875 C 1229.03125 493.011719 1227.039062 484.109375 1222.761719 477.480469 C 1216.460938 467.710938 1207.070312 459.101562 1195.398438 456.441406 C 1191.351562 455.898438 1187.289062 455.359375 1183.230469 454.808594 C 1174.96875 454.828125 1167.269531 456.921875 1160.128906 461.058594 C 1157.839844 462.039062 1155.578125 463.089844 1153.328125 464.148438 C 1117.238281 450.121094 1079.628906 442.109375 1041.070312 438.019531 C 1004.511719 434.148438 968.40625 436.238281 932.113281 441.460938 C 904.132812 445.488281 876.601562 452.621094 850.179688 462.679688 C 820.769531 473.878906 792.289062 487.441406 765.902344 504.640625 C 713.640625 538.730469 669.246094 583.238281 635.386719 635.671875 C 618.410156 661.960938 604.988281 690.328125 593.945312 719.589844 C 583.890625 746.238281 576.824219 774 572.890625 802.210938 C 567.832031 838.519531 565.859375 874.539062 569.886719 911.089844 C 574.347656 951.609375 583.039062 991.070312 598.683594 1028.800781 C 600.246094 1032.570312 601.820312 1036.328125 603.425781 1040.070312 C 598.648438 1045.640625 594.191406 1051.691406 591.140625 1058.339844 C 585.394531 1070.878906 582.539062 1082.050781 582.402344 1096.050781 C 582.328125 1103.738281 583.136719 1111.609375 585.117188 1119.050781 C 588.625 1132.238281 595.492188 1142.808594 604.078125 1153.101562 C 615.140625 1166.359375 632.351562 1176.449219 649.3125 1179.640625 C 666.316406 1182.851562 682.398438 1182.070312 699.144531 1178.800781 C 759.695312 1237.160156 837.820312 1278.710938 920.859375 1293.191406 C 944.539062 1297.320312 968.59375 1300.089844 992.640625 1300.53125 C 1016.96875 1300.96875 1040.929688 1298.699219 1065 1295.359375 C 1108.050781 1289.410156 1149.25 1275.839844 1188.460938 1257.25 C 1229.710938 1237.679688 1267.808594 1210.488281 1300.660156 1178.800781 C 1309.289062 1180.5 1318.140625 1181.769531 1326.910156 1182.019531 C 1330.269531 1182.121094 1333.578125 1181.910156 1336.910156 1181.5 C 1343.710938 1180.671875 1350.910156 1180.160156 1357.460938 1177.859375 C 1378.710938 1170.390625 1398.710938 1155.839844 1408.371094 1134.839844 C 1414.199219 1122.148438 1417.539062 1110.191406 1417.398438 1096.050781 C 1417.28125 1082.679688 1414.648438 1070.738281 1409.050781 1058.960938 C 1408.371094 1057.378906 1407.589844 1055.828125 1406.691406 1054.308594 C 1406.121094 1053.261719 1405.46875 1052.230469 1404.78125 1051.21875 C 1402.269531 1047.328125 1399.5 1043.671875 1396.480469 1040.25 C 1404 1022.960938 1410.539062 1005.199219 1415.71875 987.121094 C 1423.261719 960.78125 1427.738281 933.640625 1430.410156 906.390625 "/>
</clipPath>
<linearGradient id="linear-pattern-3" gradientUnits="userSpaceOnUse" x1="-0.0164833" y1="0" x2="0.989596" y2="0" gradientTransform="matrix(-604, 1016, -1016, -604, 1317.96, 387.32)">
<stop offset="0" stop-color="rgb(74.848938%, 57.608032%, 35.704041%)" stop-opacity="1"/>
<stop offset="0.015625" stop-color="rgb(74.848938%, 57.608032%, 35.704041%)" stop-opacity="1"/>
<stop offset="0.0234375" stop-color="rgb(74.687195%, 57.427979%, 35.55603%)" stop-opacity="1"/>
<stop offset="0.0273438" stop-color="rgb(74.342346%, 57.048035%, 35.243225%)" stop-opacity="1"/>
<stop offset="0.03125" stop-color="rgb(74.162292%, 56.846619%, 35.081482%)" stop-opacity="1"/>
<stop offset="0.0351562" stop-color="rgb(73.983765%, 56.64978%, 34.919739%)" stop-opacity="1"/>
<stop offset="0.0390625" stop-color="rgb(73.803711%, 56.451416%, 34.757996%)" stop-opacity="1"/>
<stop offset="0.0429688" stop-color="rgb(73.623657%, 56.253052%, 34.596252%)" stop-opacity="1"/>
<stop offset="0.046875" stop-color="rgb(73.443604%, 56.054688%, 34.434509%)" stop-opacity="1"/>
<stop offset="0.0507812" stop-color="rgb(73.266602%, 55.857849%, 34.274292%)" stop-opacity="1"/>
<stop offset="0.0546875" stop-color="rgb(73.086548%, 55.661011%, 34.114075%)" stop-opacity="1"/>
<stop offset="0.0585938" stop-color="rgb(72.90802%, 55.464172%, 33.955383%)" stop-opacity="1"/>
<stop offset="0.0625" stop-color="rgb(72.727966%, 55.26886%, 33.796692%)" stop-opacity="1"/>
<stop offset="0.0664062" stop-color="rgb(72.55249%, 55.073547%, 33.639526%)" stop-opacity="1"/>
<stop offset="0.0703125" stop-color="rgb(72.373962%, 54.878235%, 33.480835%)" stop-opacity="1"/>
<stop offset="0.0742188" stop-color="rgb(72.19696%, 54.684448%, 33.323669%)" stop-opacity="1"/>
<stop offset="0.078125" stop-color="rgb(72.018433%, 54.489136%, 33.166504%)" stop-opacity="1"/>
<stop offset="0.0820312" stop-color="rgb(71.842957%, 54.296875%, 33.010864%)" stop-opacity="1"/>
<stop offset="0.0859375" stop-color="rgb(71.664429%, 54.103088%, 32.855225%)" stop-opacity="1"/>
<stop offset="0.0898437" stop-color="rgb(71.487427%, 53.909302%, 32.699585%)" stop-opacity="1"/>
<stop offset="0.09375" stop-color="rgb(71.308899%, 53.717041%, 32.545471%)" stop-opacity="1"/>
<stop offset="0.0976562" stop-color="rgb(71.133423%, 53.526306%, 32.389832%)" stop-opacity="1"/>
<stop offset="0.101562" stop-color="rgb(70.956421%, 53.33252%, 32.235718%)" stop-opacity="1"/>
<stop offset="0.105469" stop-color="rgb(70.782471%, 53.143311%, 32.08313%)" stop-opacity="1"/>
<stop offset="0.109375" stop-color="rgb(70.605469%, 52.952576%, 31.930542%)" stop-opacity="1"/>
<stop offset="0.113281" stop-color="rgb(70.429993%, 52.761841%, 31.777954%)" stop-opacity="1"/>
<stop offset="0.117188" stop-color="rgb(70.254517%, 52.571106%, 31.626892%)" stop-opacity="1"/>
<stop offset="0.121094" stop-color="rgb(70.079041%, 52.381897%, 31.47583%)" stop-opacity="1"/>
<stop offset="0.125" stop-color="rgb(69.903564%, 52.192688%, 31.324768%)" stop-opacity="1"/>
<stop offset="0.128906" stop-color="rgb(69.729614%, 52.005005%, 31.175232%)" stop-opacity="1"/>
<stop offset="0.132812" stop-color="rgb(69.554138%, 51.815796%, 31.02417%)" stop-opacity="1"/>
<stop offset="0.136719" stop-color="rgb(69.381714%, 51.628113%, 30.874634%)" stop-opacity="1"/>
<stop offset="0.140625" stop-color="rgb(69.206238%, 51.441956%, 30.726624%)" stop-opacity="1"/>
<stop offset="0.144531" stop-color="rgb(69.032288%, 51.254272%, 30.578613%)" stop-opacity="1"/>
<stop offset="0.148438" stop-color="rgb(68.856812%, 51.066589%, 30.430603%)" stop-opacity="1"/>
<stop offset="0.152344" stop-color="rgb(68.684387%, 50.880432%, 30.282593%)" stop-opacity="1"/>
<stop offset="0.15625" stop-color="rgb(68.510437%, 50.694275%, 30.134583%)" stop-opacity="1"/>
<stop offset="0.160156" stop-color="rgb(68.339539%, 50.509644%, 29.989624%)" stop-opacity="1"/>
<stop offset="0.164062" stop-color="rgb(68.165588%, 50.325012%, 29.84314%)" stop-opacity="1"/>
<stop offset="0.167969" stop-color="rgb(67.993164%, 50.140381%, 29.698181%)" stop-opacity="1"/>
<stop offset="0.171875" stop-color="rgb(67.82074%, 49.95575%, 29.553223%)" stop-opacity="1"/>
<stop offset="0.175781" stop-color="rgb(67.648315%, 49.772644%, 29.408264%)" stop-opacity="1"/>
<stop offset="0.179687" stop-color="rgb(67.475891%, 49.589539%, 29.264832%)" stop-opacity="1"/>
<stop offset="0.183594" stop-color="rgb(67.303467%, 49.406433%, 29.121399%)" stop-opacity="1"/>
<stop offset="0.1875" stop-color="rgb(67.132568%, 49.223328%, 28.977966%)" stop-opacity="1"/>
<stop offset="0.191406" stop-color="rgb(66.96167%, 49.041748%, 28.834534%)" stop-opacity="1"/>
<stop offset="0.195312" stop-color="rgb(66.790771%, 48.860168%, 28.692627%)" stop-opacity="1"/>
<stop offset="0.199219" stop-color="rgb(66.619873%, 48.680115%, 28.552246%)" stop-opacity="1"/>
<stop offset="0.203125" stop-color="rgb(66.447449%, 48.498535%, 28.410339%)" stop-opacity="1"/>
<stop offset="0.207031" stop-color="rgb(66.278076%, 48.318481%, 28.269958%)" stop-opacity="1"/>
<stop offset="0.210937" stop-color="rgb(66.107178%, 48.138428%, 28.129578%)" stop-opacity="1"/>
<stop offset="0.214844" stop-color="rgb(65.937805%, 47.9599%, 27.989197%)" stop-opacity="1"/>
<stop offset="0.21875" stop-color="rgb(65.766907%, 47.77832%, 27.850342%)" stop-opacity="1"/>
<stop offset="0.222656" stop-color="rgb(65.597534%, 47.599792%, 27.711487%)" stop-opacity="1"/>
<stop offset="0.226562" stop-color="rgb(65.426636%, 47.422791%, 27.572632%)" stop-opacity="1"/>
<stop offset="0.230469" stop-color="rgb(65.258789%, 47.245789%, 27.435303%)" stop-opacity="1"/>
<stop offset="0.234375" stop-color="rgb(65.089417%, 47.067261%, 27.297974%)" stop-opacity="1"/>
<stop offset="0.238281" stop-color="rgb(64.920044%, 46.890259%, 27.16217%)" stop-opacity="1"/>
<stop offset="0.242187" stop-color="rgb(64.750671%, 46.713257%, 27.024841%)" stop-opacity="1"/>
<stop offset="0.246094" stop-color="rgb(64.582825%, 46.537781%, 26.889038%)" stop-opacity="1"/>
<stop offset="0.25" stop-color="rgb(64.414978%, 46.360779%, 26.753235%)" stop-opacity="1"/>
<stop offset="0.253906" stop-color="rgb(64.247131%, 46.185303%, 26.617432%)" stop-opacity="1"/>
<stop offset="0.257812" stop-color="rgb(64.077759%, 46.009827%, 26.483154%)" stop-opacity="1"/>
<stop offset="0.261719" stop-color="rgb(63.911438%, 45.835876%, 26.348877%)" stop-opacity="1"/>
<stop offset="0.265625" stop-color="rgb(63.742065%, 45.6604%, 26.2146%)" stop-opacity="1"/>
<stop offset="0.269531" stop-color="rgb(63.575745%, 45.48645%, 26.081848%)" stop-opacity="1"/>
<stop offset="0.273438" stop-color="rgb(63.407898%, 45.3125%, 25.949097%)" stop-opacity="1"/>
<stop offset="0.277344" stop-color="rgb(63.243103%, 45.140076%, 25.816345%)" stop-opacity="1"/>
<stop offset="0.28125" stop-color="rgb(63.075256%, 44.967651%, 25.68512%)" stop-opacity="1"/>
<stop offset="0.285156" stop-color="rgb(62.908936%, 44.795227%, 25.553894%)" stop-opacity="1"/>
<stop offset="0.289062" stop-color="rgb(62.742615%, 44.622803%, 25.421143%)" stop-opacity="1"/>
<stop offset="0.292969" stop-color="rgb(62.576294%, 44.451904%, 25.291443%)" stop-opacity="1"/>
<stop offset="0.296875" stop-color="rgb(62.409973%, 44.27948%, 25.161743%)" stop-opacity="1"/>
<stop offset="0.300781" stop-color="rgb(62.245178%, 44.110107%, 25.032043%)" stop-opacity="1"/>
<stop offset="0.304688" stop-color="rgb(62.078857%, 43.939209%, 24.902344%)" stop-opacity="1"/>
<stop offset="0.308594" stop-color="rgb(61.914062%, 43.769836%, 24.77417%)" stop-opacity="1"/>
<stop offset="0.3125" stop-color="rgb(61.747742%, 43.598938%, 24.645996%)" stop-opacity="1"/>
<stop offset="0.316406" stop-color="rgb(61.584473%, 43.431091%, 24.517822%)" stop-opacity="1"/>
<stop offset="0.320312" stop-color="rgb(61.419678%, 43.261719%, 24.389648%)" stop-opacity="1"/>
<stop offset="0.324219" stop-color="rgb(61.254883%, 43.093872%, 24.263%)" stop-opacity="1"/>
<stop offset="0.328125" stop-color="rgb(61.090088%, 42.926025%, 24.136353%)" stop-opacity="1"/>
<stop offset="0.332031" stop-color="rgb(60.926819%, 42.758179%, 24.009705%)" stop-opacity="1"/>
<stop offset="0.335937" stop-color="rgb(60.762024%, 42.590332%, 23.884583%)" stop-opacity="1"/>
<stop offset="0.339844" stop-color="rgb(60.598755%, 42.424011%, 23.75946%)" stop-opacity="1"/>
<stop offset="0.34375" stop-color="rgb(60.435486%, 42.25769%, 23.634338%)" stop-opacity="1"/>
<stop offset="0.347656" stop-color="rgb(60.273743%, 42.092896%, 23.509216%)" stop-opacity="1"/>
<stop offset="0.351562" stop-color="rgb(60.110474%, 41.925049%, 23.38562%)" stop-opacity="1"/>
<stop offset="0.355469" stop-color="rgb(59.945679%, 41.760254%, 23.262024%)" stop-opacity="1"/>
<stop offset="0.359375" stop-color="rgb(59.78241%, 41.595459%, 23.139954%)" stop-opacity="1"/>
<stop offset="0.363281" stop-color="rgb(59.620667%, 41.430664%, 23.016357%)" stop-opacity="1"/>
<stop offset="0.367187" stop-color="rgb(59.458923%, 41.265869%, 22.894287%)" stop-opacity="1"/>
<stop offset="0.371094" stop-color="rgb(59.29718%, 41.1026%, 22.773743%)" stop-opacity="1"/>
<stop offset="0.375" stop-color="rgb(59.135437%, 40.939331%, 22.651672%)" stop-opacity="1"/>
<stop offset="0.378906" stop-color="rgb(58.972168%, 40.777588%, 22.529602%)" stop-opacity="1"/>
<stop offset="0.382812" stop-color="rgb(58.810425%, 40.612793%, 22.409058%)" stop-opacity="1"/>
<stop offset="0.386719" stop-color="rgb(58.650208%, 40.452576%, 22.290039%)" stop-opacity="1"/>
<stop offset="0.390625" stop-color="rgb(58.488464%, 40.289307%, 22.171021%)" stop-opacity="1"/>
<stop offset="0.394531" stop-color="rgb(58.328247%, 40.127563%, 22.050476%)" stop-opacity="1"/>
<stop offset="0.398437" stop-color="rgb(58.16803%, 39.967346%, 21.931458%)" stop-opacity="1"/>
<stop offset="0.402344" stop-color="rgb(58.007812%, 39.807129%, 21.813965%)" stop-opacity="1"/>
<stop offset="0.40625" stop-color="rgb(57.847595%, 39.645386%, 21.694946%)" stop-opacity="1"/>
<stop offset="0.410156" stop-color="rgb(57.687378%, 39.486694%, 21.577454%)" stop-opacity="1"/>
<stop offset="0.414062" stop-color="rgb(57.525635%, 39.326477%, 21.461487%)" stop-opacity="1"/>
<stop offset="0.417969" stop-color="rgb(57.368469%, 39.167786%, 21.343994%)" stop-opacity="1"/>
<stop offset="0.421875" stop-color="rgb(57.208252%, 39.009094%, 21.228027%)" stop-opacity="1"/>
<stop offset="0.425781" stop-color="rgb(57.049561%, 38.850403%, 21.112061%)" stop-opacity="1"/>
<stop offset="0.429687" stop-color="rgb(56.889343%, 38.691711%, 20.996094%)" stop-opacity="1"/>
<stop offset="0.433594" stop-color="rgb(56.730652%, 38.534546%, 20.881653%)" stop-opacity="1"/>
<stop offset="0.4375" stop-color="rgb(56.57196%, 38.375854%, 20.767212%)" stop-opacity="1"/>
<stop offset="0.441406" stop-color="rgb(56.413269%, 38.220215%, 20.652771%)" stop-opacity="1"/>
<stop offset="0.445312" stop-color="rgb(56.254578%, 38.064575%, 20.539856%)" stop-opacity="1"/>
<stop offset="0.449219" stop-color="rgb(56.095886%, 37.90741%, 20.425415%)" stop-opacity="1"/>
<stop offset="0.453125" stop-color="rgb(55.937195%, 37.75177%, 20.3125%)" stop-opacity="1"/>
<stop offset="0.457031" stop-color="rgb(55.781555%, 37.59613%, 20.199585%)" stop-opacity="1"/>
<stop offset="0.460938" stop-color="rgb(55.622864%, 37.442017%, 20.088196%)" stop-opacity="1"/>
<stop offset="0.464844" stop-color="rgb(55.465698%, 37.286377%, 19.975281%)" stop-opacity="1"/>
<stop offset="0.46875" stop-color="rgb(55.308533%, 37.132263%, 19.863892%)" stop-opacity="1"/>
<stop offset="0.472656" stop-color="rgb(55.151367%, 36.978149%, 19.754028%)" stop-opacity="1"/>
<stop offset="0.476562" stop-color="rgb(54.994202%, 36.825562%, 19.644165%)" stop-opacity="1"/>
<stop offset="0.480469" stop-color="rgb(54.838562%, 36.671448%, 19.532776%)" stop-opacity="1"/>
<stop offset="0.484375" stop-color="rgb(54.681396%, 36.51886%, 19.422913%)" stop-opacity="1"/>
<stop offset="0.488281" stop-color="rgb(54.525757%, 36.366272%, 19.314575%)" stop-opacity="1"/>
<stop offset="0.492188" stop-color="rgb(54.370117%, 36.21521%, 19.204712%)" stop-opacity="1"/>
<stop offset="0.496094" stop-color="rgb(54.212952%, 36.062622%, 19.096375%)" stop-opacity="1"/>
<stop offset="0.5" stop-color="rgb(54.057312%, 35.910034%, 18.988037%)" stop-opacity="1"/>
<stop offset="0.503906" stop-color="rgb(53.901672%, 35.760498%, 18.881226%)" stop-opacity="1"/>
<stop offset="0.507813" stop-color="rgb(53.746033%, 35.60791%, 18.772888%)" stop-opacity="1"/>
<stop offset="0.511719" stop-color="rgb(53.591919%, 35.458374%, 18.666077%)" stop-opacity="1"/>
<stop offset="0.515625" stop-color="rgb(53.436279%, 35.308838%, 18.559265%)" stop-opacity="1"/>
<stop offset="0.519531" stop-color="rgb(53.282166%, 35.159302%, 18.453979%)" stop-opacity="1"/>
<stop offset="0.523438" stop-color="rgb(53.128052%, 35.009766%, 18.347168%)" stop-opacity="1"/>
<stop offset="0.527344" stop-color="rgb(52.973938%, 34.861755%, 18.243408%)" stop-opacity="1"/>
<stop offset="0.53125" stop-color="rgb(52.818298%, 34.713745%, 18.138123%)" stop-opacity="1"/>
<stop offset="0.535156" stop-color="rgb(52.66571%, 34.565735%, 18.032837%)" stop-opacity="1"/>
<stop offset="0.539062" stop-color="rgb(52.511597%, 34.416199%, 17.929077%)" stop-opacity="1"/>
<stop offset="0.542969" stop-color="rgb(52.359009%, 34.269714%, 17.825317%)" stop-opacity="1"/>
<stop offset="0.546875" stop-color="rgb(52.204895%, 34.12323%, 17.721558%)" stop-opacity="1"/>
<stop offset="0.550781" stop-color="rgb(52.052307%, 33.976746%, 17.617798%)" stop-opacity="1"/>
<stop offset="0.554688" stop-color="rgb(51.898193%, 33.828735%, 17.515564%)" stop-opacity="1"/>
<stop offset="0.558594" stop-color="rgb(51.745605%, 33.683777%, 17.41333%)" stop-opacity="1"/>
<stop offset="0.5625" stop-color="rgb(51.593018%, 33.538818%, 17.311096%)" stop-opacity="1"/>
<stop offset="0.566406" stop-color="rgb(51.44043%, 33.39386%, 17.210388%)" stop-opacity="1"/>
<stop offset="0.570312" stop-color="rgb(51.287842%, 33.247375%, 17.10968%)" stop-opacity="1"/>
<stop offset="0.574219" stop-color="rgb(51.13678%, 33.103943%, 17.007446%)" stop-opacity="1"/>
<stop offset="0.578125" stop-color="rgb(50.984192%, 32.958984%, 16.908264%)" stop-opacity="1"/>
<stop offset="0.582031" stop-color="rgb(50.83313%, 32.817078%, 16.807556%)" stop-opacity="1"/>
<stop offset="0.585937" stop-color="rgb(50.682068%, 32.672119%, 16.708374%)" stop-opacity="1"/>
<stop offset="0.589844" stop-color="rgb(50.52948%, 32.528687%, 16.609192%)" stop-opacity="1"/>
<stop offset="0.59375" stop-color="rgb(50.378418%, 32.38678%, 16.51001%)" stop-opacity="1"/>
<stop offset="0.597656" stop-color="rgb(50.227356%, 32.244873%, 16.412354%)" stop-opacity="1"/>
<stop offset="0.601562" stop-color="rgb(50.076294%, 32.10144%, 16.314697%)" stop-opacity="1"/>
<stop offset="0.605469" stop-color="rgb(49.926758%, 31.96106%, 16.217041%)" stop-opacity="1"/>
<stop offset="0.609375" stop-color="rgb(49.775696%, 31.819153%, 16.119385%)" stop-opacity="1"/>
<stop offset="0.613281" stop-color="rgb(49.62616%, 31.678772%, 16.023254%)" stop-opacity="1"/>
<stop offset="0.617188" stop-color="rgb(49.475098%, 31.536865%, 15.925598%)" stop-opacity="1"/>
<stop offset="0.621094" stop-color="rgb(49.325562%, 31.396484%, 15.829468%)" stop-opacity="1"/>
<stop offset="0.625" stop-color="rgb(49.176025%, 31.256104%, 15.733337%)" stop-opacity="1"/>
<stop offset="0.628906" stop-color="rgb(49.026489%, 31.117249%, 15.638733%)" stop-opacity="1"/>
<stop offset="0.632812" stop-color="rgb(48.876953%, 30.978394%, 15.542603%)" stop-opacity="1"/>
<stop offset="0.636719" stop-color="rgb(48.728943%, 30.839539%, 15.447998%)" stop-opacity="1"/>
<stop offset="0.640625" stop-color="rgb(48.579407%, 30.700684%, 15.353394%)" stop-opacity="1"/>
<stop offset="0.644531" stop-color="rgb(48.429871%, 30.561829%, 15.260315%)" stop-opacity="1"/>
<stop offset="0.648438" stop-color="rgb(48.280334%, 30.4245%, 15.16571%)" stop-opacity="1"/>
<stop offset="0.652344" stop-color="rgb(48.13385%, 30.28717%, 15.072632%)" stop-opacity="1"/>
<stop offset="0.65625" stop-color="rgb(47.984314%, 30.149841%, 14.981079%)" stop-opacity="1"/>
<stop offset="0.660156" stop-color="rgb(47.836304%, 30.012512%, 14.888%)" stop-opacity="1"/>
<stop offset="0.664062" stop-color="rgb(47.688293%, 29.876709%, 14.796448%)" stop-opacity="1"/>
<stop offset="0.667969" stop-color="rgb(47.541809%, 29.740906%, 14.704895%)" stop-opacity="1"/>
<stop offset="0.671875" stop-color="rgb(47.393799%, 29.605103%, 14.611816%)" stop-opacity="1"/>
<stop offset="0.675781" stop-color="rgb(47.245789%, 29.469299%, 14.52179%)" stop-opacity="1"/>
<stop offset="0.679687" stop-color="rgb(47.099304%, 29.335022%, 14.430237%)" stop-opacity="1"/>
<stop offset="0.683594" stop-color="rgb(46.95282%, 29.200745%, 14.34021%)" stop-opacity="1"/>
<stop offset="0.6875" stop-color="rgb(46.806335%, 29.064941%, 14.250183%)" stop-opacity="1"/>
<stop offset="0.691406" stop-color="rgb(46.659851%, 28.930664%, 14.161682%)" stop-opacity="1"/>
<stop offset="0.695312" stop-color="rgb(46.511841%, 28.797913%, 14.071655%)" stop-opacity="1"/>
<stop offset="0.699219" stop-color="rgb(46.366882%, 28.665161%, 13.983154%)" stop-opacity="1"/>
<stop offset="0.703125" stop-color="rgb(46.220398%, 28.530884%, 13.894653%)" stop-opacity="1"/>
<stop offset="0.707031" stop-color="rgb(46.073914%, 28.398132%, 13.806152%)" stop-opacity="1"/>
<stop offset="0.710937" stop-color="rgb(45.928955%, 28.265381%, 13.717651%)" stop-opacity="1"/>
<stop offset="0.714844" stop-color="rgb(45.782471%, 28.134155%, 13.630676%)" stop-opacity="1"/>
<stop offset="0.71875" stop-color="rgb(45.637512%, 28.001404%, 13.543701%)" stop-opacity="1"/>
<stop offset="0.722656" stop-color="rgb(45.492554%, 27.871704%, 13.456726%)" stop-opacity="1"/>
<stop offset="0.726562" stop-color="rgb(45.347595%, 27.740479%, 13.369751%)" stop-opacity="1"/>
<stop offset="0.730469" stop-color="rgb(45.202637%, 27.609253%, 13.284302%)" stop-opacity="1"/>
<stop offset="0.734375" stop-color="rgb(45.057678%, 27.478027%, 13.198853%)" stop-opacity="1"/>
<stop offset="0.738281" stop-color="rgb(44.914246%, 27.348328%, 13.113403%)" stop-opacity="1"/>
<stop offset="0.742188" stop-color="rgb(44.769287%, 27.218628%, 13.027954%)" stop-opacity="1"/>
<stop offset="0.746094" stop-color="rgb(44.625854%, 27.088928%, 12.944031%)" stop-opacity="1"/>
<stop offset="0.75" stop-color="rgb(44.480896%, 26.960754%, 12.858582%)" stop-opacity="1"/>
<stop offset="0.753906" stop-color="rgb(44.338989%, 26.832581%, 12.774658%)" stop-opacity="1"/>
<stop offset="0.757812" stop-color="rgb(44.194031%, 26.702881%, 12.690735%)" stop-opacity="1"/>
<stop offset="0.761719" stop-color="rgb(44.050598%, 26.574707%, 12.608337%)" stop-opacity="1"/>
<stop offset="0.765625" stop-color="rgb(43.907166%, 26.448059%, 12.524414%)" stop-opacity="1"/>
<stop offset="0.769531" stop-color="rgb(43.765259%, 26.321411%, 12.442017%)" stop-opacity="1"/>
<stop offset="0.773438" stop-color="rgb(43.621826%, 26.193237%, 12.359619%)" stop-opacity="1"/>
<stop offset="0.777344" stop-color="rgb(43.478394%, 26.066589%, 12.278748%)" stop-opacity="1"/>
<stop offset="0.78125" stop-color="rgb(43.336487%, 25.939941%, 12.19635%)" stop-opacity="1"/>
<stop offset="0.785156" stop-color="rgb(43.19458%, 25.814819%, 12.115479%)" stop-opacity="1"/>
<stop offset="0.789062" stop-color="rgb(43.051147%, 25.688171%, 12.034607%)" stop-opacity="1"/>
<stop offset="0.792969" stop-color="rgb(42.909241%, 25.563049%, 11.953735%)" stop-opacity="1"/>
<stop offset="0.796875" stop-color="rgb(42.767334%, 25.437927%, 11.872864%)" stop-opacity="1"/>
<stop offset="0.800781" stop-color="rgb(42.625427%, 25.312805%, 11.793518%)" stop-opacity="1"/>
<stop offset="0.804687" stop-color="rgb(42.483521%, 25.187683%, 11.714172%)" stop-opacity="1"/>
<stop offset="0.808594" stop-color="rgb(42.34314%, 25.065613%, 11.634827%)" stop-opacity="1"/>
<stop offset="0.8125" stop-color="rgb(42.201233%, 24.940491%, 11.555481%)" stop-opacity="1"/>
<stop offset="0.816406" stop-color="rgb(42.060852%, 24.81842%, 11.476135%)" stop-opacity="1"/>
<stop offset="0.820312" stop-color="rgb(41.920471%, 24.693298%, 11.398315%)" stop-opacity="1"/>
<stop offset="0.824219" stop-color="rgb(41.78009%, 24.571228%, 11.320496%)" stop-opacity="1"/>
<stop offset="0.828125" stop-color="rgb(41.638184%, 24.449158%, 11.244202%)" stop-opacity="1"/>
<stop offset="0.832031" stop-color="rgb(41.499329%, 24.327087%, 11.166382%)" stop-opacity="1"/>
<stop offset="0.835938" stop-color="rgb(41.357422%, 24.205017%, 11.088562%)" stop-opacity="1"/>
<stop offset="0.839844" stop-color="rgb(41.218567%, 24.084473%, 11.012268%)" stop-opacity="1"/>
<stop offset="0.84375" stop-color="rgb(41.078186%, 23.962402%, 10.935974%)" stop-opacity="1"/>
<stop offset="0.847656" stop-color="rgb(40.939331%, 23.841858%, 10.85968%)" stop-opacity="1"/>
<stop offset="0.851562" stop-color="rgb(40.79895%, 23.721313%, 10.784912%)" stop-opacity="1"/>
<stop offset="0.855469" stop-color="rgb(40.660095%, 23.600769%, 10.708618%)" stop-opacity="1"/>
<stop offset="0.859375" stop-color="rgb(40.519714%, 23.480225%, 10.63385%)" stop-opacity="1"/>
<stop offset="0.863281" stop-color="rgb(40.382385%, 23.361206%, 10.559082%)" stop-opacity="1"/>
<stop offset="0.867188" stop-color="rgb(40.24353%, 23.242188%, 10.484314%)" stop-opacity="1"/>
<stop offset="0.871094" stop-color="rgb(40.104675%, 23.123169%, 10.411072%)" stop-opacity="1"/>
<stop offset="0.875" stop-color="rgb(39.96582%, 23.00415%, 10.33783%)" stop-opacity="1"/>
<stop offset="0.878906" stop-color="rgb(39.828491%, 22.885132%, 10.264587%)" stop-opacity="1"/>
<stop offset="0.882812" stop-color="rgb(39.689636%, 22.767639%, 10.191345%)" stop-opacity="1"/>
<stop offset="0.886719" stop-color="rgb(39.552307%, 22.650146%, 10.118103%)" stop-opacity="1"/>
<stop offset="0.890625" stop-color="rgb(39.413452%, 22.532654%, 10.044861%)" stop-opacity="1"/>
<stop offset="0.894531" stop-color="rgb(39.277649%, 22.415161%, 9.973145%)" stop-opacity="1"/>
<stop offset="0.898438" stop-color="rgb(39.138794%, 22.299194%, 9.901428%)" stop-opacity="1"/>
<stop offset="0.902344" stop-color="rgb(39.001465%, 22.183228%, 9.829712%)" stop-opacity="1"/>
<stop offset="0.90625" stop-color="rgb(38.864136%, 22.065735%, 9.759521%)" stop-opacity="1"/>
<stop offset="0.910156" stop-color="rgb(38.728333%, 21.951294%, 9.689331%)" stop-opacity="1"/>
<stop offset="0.914062" stop-color="rgb(38.591003%, 21.835327%, 9.617615%)" stop-opacity="1"/>
<stop offset="0.917969" stop-color="rgb(38.453674%, 21.71936%, 9.547424%)" stop-opacity="1"/>
<stop offset="0.921875" stop-color="rgb(38.317871%, 21.604919%, 9.477234%)" stop-opacity="1"/>
<stop offset="0.925781" stop-color="rgb(38.180542%, 21.490479%, 9.408569%)" stop-opacity="1"/>
<stop offset="0.929687" stop-color="rgb(38.044739%, 21.376038%, 9.338379%)" stop-opacity="1"/>
<stop offset="0.933594" stop-color="rgb(37.910461%, 21.261597%, 9.269714%)" stop-opacity="1"/>
<stop offset="0.9375" stop-color="rgb(37.773132%, 21.148682%, 9.20105%)" stop-opacity="1"/>
<stop offset="0.941406" stop-color="rgb(37.637329%, 21.034241%, 9.132385%)" stop-opacity="1"/>
<stop offset="0.945313" stop-color="rgb(37.501526%, 20.921326%, 9.063721%)" stop-opacity="1"/>
<stop offset="0.949219" stop-color="rgb(37.367249%, 20.809937%, 8.996582%)" stop-opacity="1"/>
<stop offset="0.953125" stop-color="rgb(37.231445%, 20.697021%, 8.929443%)" stop-opacity="1"/>
<stop offset="0.957031" stop-color="rgb(37.097168%, 20.584106%, 8.862305%)" stop-opacity="1"/>
<stop offset="0.960938" stop-color="rgb(36.961365%, 20.472717%, 8.795166%)" stop-opacity="1"/>
<stop offset="0.964844" stop-color="rgb(36.827087%, 20.361328%, 8.729553%)" stop-opacity="1"/>
<stop offset="0.96875" stop-color="rgb(36.69281%, 20.249939%, 8.662415%)" stop-opacity="1"/>
<stop offset="0.972656" stop-color="rgb(36.558533%, 20.13855%, 8.596802%)" stop-opacity="1"/>
<stop offset="0.976562" stop-color="rgb(36.424255%, 20.027161%, 8.531189%)" stop-opacity="1"/>
<stop offset="0.980469" stop-color="rgb(36.291504%, 19.918823%, 8.465576%)" stop-opacity="1"/>
<stop offset="0.984375" stop-color="rgb(36.155701%, 19.807434%, 8.401489%)" stop-opacity="1"/>
<stop offset="0.988281" stop-color="rgb(36.022949%, 19.699097%, 8.335876%)" stop-opacity="1"/>
<stop offset="0.992188" stop-color="rgb(35.888672%, 19.589233%, 8.27179%)" stop-opacity="1"/>
<stop offset="0.996094" stop-color="rgb(35.754395%, 19.47937%, 8.207703%)" stop-opacity="1"/>
<stop offset="1" stop-color="rgb(35.621643%, 19.371033%, 8.143616%)" stop-opacity="1"/>
</linearGradient>
</defs>

<path fill-rule="nonzero" fill="rgb(20.133972%, 18.67981%, 19.041443%)" fill-opacity="1" d="M 504.132812 1472.558594 C 493.75 1477.921875 482.421875 1480.601562 470.144531 1480.601562 C 453.789062 1480.601562 441.15625 1475.808594 432.246094 1466.230469 C 423.335938 1456.660156 418.878906 1443.058594 418.878906 1425.421875 C 418.878906 1407.839844 423.417969 1394.21875 432.496094 1384.570312 C 441.570312 1374.929688 454.382812 1370.101562 470.925781 1370.101562 C 480.3125 1370.101562 491.332031 1371.648438 503.988281 1374.730469 L 503.988281 1388.730469 C 489.578125 1383.761719 478.464844 1381.269531 470.640625 1381.269531 C 459.21875 1381.269531 450.378906 1385.128906 444.121094 1392.859375 C 437.863281 1400.578125 434.734375 1411.488281 434.734375 1425.558594 C 434.734375 1439.03125 438.078125 1449.621094 444.761719 1457.351562 C 451.445312 1465.070312 460.59375 1468.941406 472.207031 1468.941406 C 482.113281 1468.941406 492.753906 1465.878906 504.132812 1459.761719 L 504.132812 1472.558594 "/>
<path fill-rule="nonzero" fill="rgb(20.133972%, 18.67981%, 19.041443%)" fill-opacity="1" d="M 568.835938 1469.429688 C 579.308594 1469.429688 587.488281 1465.539062 593.363281 1457.738281 C 599.242188 1449.941406 602.183594 1439.101562 602.183594 1425.210938 C 602.183594 1411.410156 599.242188 1400.640625 593.363281 1392.890625 C 587.488281 1385.140625 579.308594 1381.269531 568.835938 1381.269531 C 558.359375 1381.269531 550.179688 1385.140625 544.304688 1392.890625 C 538.425781 1400.640625 535.488281 1411.410156 535.488281 1425.210938 C 535.488281 1439.101562 538.425781 1449.941406 544.304688 1457.738281 C 550.179688 1465.539062 558.359375 1469.429688 568.835938 1469.429688 Z M 568.835938 1480.601562 C 553.902344 1480.601562 541.96875 1475.578125 533.035156 1465.558594 C 524.097656 1455.53125 519.632812 1442.128906 519.632812 1425.351562 C 519.632812 1408.570312 524.097656 1395.171875 533.035156 1385.140625 C 541.96875 1375.121094 553.902344 1370.101562 568.835938 1370.101562 C 583.765625 1370.101562 595.699219 1375.121094 604.636719 1385.140625 C 613.570312 1395.171875 618.035156 1408.570312 618.035156 1425.351562 C 618.035156 1442.128906 613.570312 1455.53125 604.636719 1465.558594 C 595.699219 1475.578125 583.765625 1480.601562 568.835938 1480.601562 "/>
<path fill-rule="nonzero" fill="rgb(20.133972%, 18.67981%, 19.041443%)" fill-opacity="1" d="M 638.941406 1477.96875 L 638.941406 1372.738281 L 659.546875 1372.738281 L 688.746094 1454.148438 L 718.742188 1372.738281 L 737.277344 1372.738281 L 737.277344 1477.96875 L 723.269531 1477.96875 L 723.269531 1392.488281 L 694.292969 1470.929688 L 679.867188 1470.929688 L 651.738281 1392.289062 L 651.738281 1477.96875 L 638.941406 1477.96875 "/>
<path fill-rule="nonzero" fill="rgb(20.133972%, 18.67981%, 19.041443%)" fill-opacity="1" d="M 779.15625 1424.851562 L 785.199219 1424.851562 C 794.0625 1424.851562 800.914062 1422.820312 805.746094 1418.738281 C 810.582031 1414.660156 813 1408.878906 813 1401.390625 C 813 1395.128906 811.09375 1390.648438 807.277344 1387.949219 C 803.460938 1385.25 797.144531 1383.898438 788.328125 1383.898438 L 779.15625 1383.898438 Z M 764.367188 1477.96875 L 764.367188 1372.738281 L 793.019531 1372.738281 C 801.269531 1372.738281 807.632812 1373.410156 812.113281 1374.761719 C 816.589844 1376.109375 820.253906 1378.488281 823.097656 1381.910156 C 826.839844 1386.410156 828.714844 1392.550781 828.714844 1400.320312 C 828.714844 1411.511719 824.921875 1420.28125 817.339844 1426.628906 C 809.753906 1432.980469 799.230469 1436.160156 785.769531 1436.160156 L 779.15625 1436.160156 L 779.15625 1477.96875 L 764.367188 1477.96875 "/>
<path fill-rule="nonzero" fill="rgb(20.133972%, 18.67981%, 19.041443%)" fill-opacity="1" d="M 862.210938 1437.71875 L 898.207031 1437.71875 L 880.230469 1392.28125 Z M 832.484375 1477.96875 L 874.21875 1372.738281 L 889.007812 1372.738281 L 930.105469 1477.96875 L 914 1477.96875 L 902.566406 1448.890625 L 857.9375 1448.890625 L 846.328125 1477.96875 L 832.484375 1477.96875 "/>
<path fill-rule="nonzero" fill="rgb(20.133972%, 18.67981%, 19.041443%)" fill-opacity="1" d="M 945.320312 1477.96875 L 945.320312 1372.738281 L 959.96875 1372.738281 L 1012.941406 1454 L 1012.941406 1372.738281 L 1025.738281 1372.738281 L 1025.738281 1477.96875 L 1011.160156 1477.96875 L 958.121094 1396.730469 L 958.121094 1477.96875 L 945.320312 1477.96875 "/>
<path fill-rule="nonzero" fill="rgb(20.133972%, 18.67981%, 19.041443%)" fill-opacity="1" d="M 1075.648438 1477.96875 L 1075.648438 1434.03125 L 1040.53125 1372.738281 L 1057.570312 1372.738281 L 1084.921875 1420.300781 L 1114.328125 1372.738281 L 1128.199219 1372.738281 L 1090.578125 1433.738281 L 1090.578125 1477.96875 L 1075.648438 1477.96875 "/>
<path fill-rule="nonzero" fill="rgb(20.133972%, 18.67981%, 19.041443%)" fill-opacity="1" d="M 1189.699219 1477.96875 L 1189.699219 1372.738281 L 1204.351562 1372.738281 L 1257.320312 1454 L 1257.320312 1372.738281 L 1270.121094 1372.738281 L 1270.121094 1477.96875 L 1255.539062 1477.96875 L 1202.5 1396.730469 L 1202.5 1477.96875 L 1189.699219 1477.96875 "/>
<path fill-rule="nonzero" fill="rgb(20.133972%, 18.67981%, 19.041443%)" fill-opacity="1" d="M 1314.640625 1437.71875 L 1350.628906 1437.71875 L 1332.660156 1392.28125 Z M 1284.910156 1477.96875 L 1326.640625 1372.738281 L 1341.429688 1372.738281 L 1382.53125 1477.96875 L 1366.421875 1477.96875 L 1354.988281 1448.890625 L 1310.359375 1448.890625 L 1298.75 1477.96875 L 1284.910156 1477.96875 "/>
<path fill-rule="nonzero" fill="rgb(20.133972%, 18.67981%, 19.041443%)" fill-opacity="1" d="M 1397.75 1477.96875 L 1397.75 1372.738281 L 1418.351562 1372.738281 L 1447.550781 1454.148438 L 1477.550781 1372.738281 L 1496.078125 1372.738281 L 1496.078125 1477.96875 L 1482.070312 1477.96875 L 1482.070312 1392.488281 L 1453.101562 1470.929688 L 1438.671875 1470.929688 L 1410.550781 1392.289062 L 1410.550781 1477.96875 L 1397.75 1477.96875 "/>
<path fill-rule="nonzero" fill="rgb(20.133972%, 18.67981%, 19.041443%)" fill-opacity="1" d="M 1523.171875 1477.96875 L 1523.171875 1372.738281 L 1581.96875 1372.738281 L 1581.96875 1383.898438 L 1538.101562 1383.898438 L 1538.101562 1417.671875 L 1574.859375 1417.671875 L 1574.859375 1428.691406 L 1538.101562 1428.691406 L 1538.101562 1466.800781 L 1585.03125 1466.800781 L 1585.03125 1477.96875 L 1523.171875 1477.96875 "/>
<path fill-rule="nonzero" fill="rgb(30.917358%, 29.660034%, 29.972839%)" fill-opacity="1" d="M 760.125 1523.160156 L 746.34375 1523.160156 L 746.34375 1518.191406 L 779.890625 1518.191406 L 779.890625 1523.160156 L 766.042969 1523.160156 L 766.042969 1563.5 L 760.125 1563.5 L 760.125 1523.160156 "/>
<path fill-rule="nonzero" fill="rgb(30.917358%, 29.660034%, 29.972839%)" fill-opacity="1" d="M 812.472656 1544.679688 L 808.035156 1531.628906 C 807.027344 1528.679688 806.355469 1525.988281 805.683594 1523.359375 L 805.546875 1523.359375 C 804.875 1526.050781 804.136719 1528.808594 803.261719 1531.570312 L 798.824219 1544.679688 Z M 797.613281 1549.25 L 792.90625 1563.5 L 786.855469 1563.5 L 802.253906 1518.191406 L 809.3125 1518.191406 L 824.777344 1563.5 L 818.523438 1563.5 L 813.683594 1549.25 L 797.613281 1549.25 "/>
<path fill-rule="nonzero" fill="rgb(30.917358%, 29.660034%, 29.972839%)" fill-opacity="1" d="M 876.347656 1561.480469 C 873.726562 1562.429688 868.550781 1563.96875 862.429688 1563.96875 C 855.574219 1563.96875 849.925781 1562.21875 845.488281 1557.988281 C 841.589844 1554.21875 839.167969 1548.171875 839.167969 1541.109375 C 839.234375 1527.601562 848.515625 1517.71875 863.710938 1517.71875 C 868.953125 1517.71875 873.054688 1518.859375 875.003906 1519.800781 L 873.59375 1524.570312 C 871.171875 1523.5 868.144531 1522.621094 863.574219 1522.621094 C 852.546875 1522.621094 845.355469 1529.480469 845.355469 1540.839844 C 845.355469 1552.339844 852.277344 1559.128906 862.835938 1559.128906 C 866.667969 1559.128906 869.289062 1558.589844 870.632812 1557.921875 L 870.632812 1544.410156 L 861.421875 1544.410156 L 861.421875 1539.699219 L 876.347656 1539.699219 L 876.347656 1561.480469 "/>
<path fill-rule="nonzero" fill="rgb(30.917358%, 29.660034%, 29.972839%)" fill-opacity="1" d="M 895.683594 1518.191406 L 901.535156 1518.191406 L 901.535156 1558.589844 L 920.898438 1558.589844 L 920.898438 1563.5 L 895.683594 1563.5 L 895.683594 1518.191406 "/>
<path fill-rule="nonzero" fill="rgb(30.917358%, 29.660034%, 29.972839%)" fill-opacity="1" d="M 943.660156 1518.191406 L 943.660156 1563.5 L 937.8125 1563.5 L 937.8125 1518.191406 L 943.660156 1518.191406 "/>
<path fill-rule="nonzero" fill="rgb(30.917358%, 29.660034%, 29.972839%)" fill-opacity="1" d="M 965.3125 1563.5 L 965.3125 1518.191406 L 971.699219 1518.191406 L 986.222656 1541.109375 C 989.585938 1546.421875 992.207031 1551.199219 994.359375 1555.839844 L 994.492188 1555.769531 C 993.953125 1549.71875 993.820312 1544.210938 993.820312 1537.148438 L 993.820312 1518.191406 L 999.332031 1518.191406 L 999.332031 1563.5 L 993.414062 1563.5 L 979.027344 1540.511719 C 975.867188 1535.46875 972.84375 1530.289062 970.558594 1525.378906 L 970.355469 1525.449219 C 970.691406 1531.160156 970.824219 1536.609375 970.824219 1544.140625 L 970.824219 1563.5 L 965.3125 1563.5 "/>
<path fill-rule="nonzero" fill="rgb(30.917358%, 29.660034%, 29.972839%)" fill-opacity="1" d="M 1044.449219 1542.261719 L 1026.839844 1542.261719 L 1026.839844 1558.589844 L 1046.46875 1558.589844 L 1046.46875 1563.5 L 1020.988281 1563.5 L 1020.988281 1518.191406 L 1045.460938 1518.191406 L 1045.460938 1523.101562 L 1026.839844 1523.101562 L 1026.839844 1537.421875 L 1044.449219 1537.421875 L 1044.449219 1542.261719 "/>
<path fill-rule="nonzero" fill="rgb(30.917358%, 29.660034%, 29.972839%)" fill-opacity="1" d="M 1085.601562 1518.191406 L 1085.601562 1537.148438 L 1107.519531 1537.148438 L 1107.519531 1518.191406 L 1113.429688 1518.191406 L 1113.429688 1563.5 L 1107.519531 1563.5 L 1107.519531 1542.261719 L 1085.601562 1542.261719 L 1085.601562 1563.5 L 1079.75 1563.5 L 1079.75 1518.191406 L 1085.601562 1518.191406 "/>
<path fill-rule="nonzero" fill="rgb(30.917358%, 29.660034%, 29.972839%)" fill-opacity="1" d="M 1158.480469 1542.261719 L 1140.871094 1542.261719 L 1140.871094 1558.589844 L 1160.5 1558.589844 L 1160.5 1563.5 L 1135.019531 1563.5 L 1135.019531 1518.191406 L 1159.488281 1518.191406 L 1159.488281 1523.101562 L 1140.871094 1523.101562 L 1140.871094 1537.421875 L 1158.480469 1537.421875 L 1158.480469 1542.261719 "/>
<path fill-rule="nonzero" fill="rgb(30.917358%, 29.660034%, 29.972839%)" fill-opacity="1" d="M 1186.421875 1539.429688 L 1192.398438 1539.429688 C 1198.660156 1539.429688 1202.621094 1536 1202.621094 1530.828125 C 1202.621094 1524.980469 1198.390625 1522.421875 1192.199219 1522.359375 C 1189.378906 1522.359375 1187.359375 1522.621094 1186.421875 1522.890625 Z M 1180.570312 1518.789062 C 1183.53125 1518.191406 1187.761719 1517.851562 1191.800781 1517.851562 C 1198.050781 1517.851562 1202.089844 1518.988281 1204.910156 1521.550781 C 1207.199219 1523.570312 1208.46875 1526.660156 1208.46875 1530.148438 C 1208.46875 1536.140625 1204.710938 1540.101562 1199.929688 1541.71875 L 1199.929688 1541.921875 C 1203.429688 1543.128906 1205.511719 1546.359375 1206.589844 1551.058594 C 1208.070312 1557.378906 1209.140625 1561.75 1210.089844 1563.5 L 1204.039062 1563.5 C 1203.300781 1562.21875 1202.289062 1558.320312 1201.011719 1552.679688 C 1199.671875 1546.421875 1197.238281 1544.070312 1191.929688 1543.871094 L 1186.421875 1543.871094 L 1186.421875 1563.5 L 1180.570312 1563.5 L 1180.570312 1518.789062 "/>
<path fill-rule="nonzero" fill="rgb(30.917358%, 29.660034%, 29.972839%)" fill-opacity="1" d="M 1251.640625 1542.261719 L 1234.03125 1542.261719 L 1234.03125 1558.589844 L 1253.660156 1558.589844 L 1253.660156 1563.5 L 1228.179688 1563.5 L 1228.179688 1518.191406 L 1252.648438 1518.191406 L 1252.648438 1523.101562 L 1234.03125 1523.101562 L 1234.03125 1537.421875 L 1251.640625 1537.421875 L 1251.640625 1542.261719 "/>
<path fill-rule="nonzero" fill="rgb(65.501404%, 64.872742%, 65.028381%)" fill-opacity="1" d="M 723.359375 1522.839844 L 414.96875 1522.839844 L 414.96875 1517.78125 L 723.359375 1517.78125 L 723.359375 1522.839844 "/>
<path fill-rule="nonzero" fill="rgb(65.501404%, 64.872742%, 65.028381%)" fill-opacity="1" d="M 723.359375 1543.378906 L 414.96875 1543.378906 L 414.96875 1538.308594 L 723.359375 1538.308594 L 723.359375 1543.378906 "/>
<path fill-rule="nonzero" fill="rgb(65.501404%, 64.872742%, 65.028381%)" fill-opacity="1" d="M 723.359375 1563.910156 L 414.96875 1563.910156 L 414.96875 1558.851562 L 723.359375 1558.851562 L 723.359375 1563.910156 "/>
<path fill-rule="nonzero" fill="rgb(65.501404%, 64.872742%, 65.028381%)" fill-opacity="1" d="M 1585.03125 1522.839844 L 1276.640625 1522.839844 L 1276.640625 1517.78125 L 1585.03125 1517.78125 L 1585.03125 1522.839844 "/>
<path fill-rule="nonzero" fill="rgb(65.501404%, 64.872742%, 65.028381%)" fill-opacity="1" d="M 1585.03125 1543.378906 L 1276.640625 1543.378906 L 1276.640625 1538.308594 L 1585.03125 1538.308594 L 1585.03125 1543.378906 "/>
<path fill-rule="nonzero" fill="rgb(65.501404%, 64.872742%, 65.028381%)" fill-opacity="1" d="M 1585.03125 1563.910156 L 1276.640625 1563.910156 L 1276.640625 1558.851562 L 1585.03125 1558.851562 L 1585.03125 1563.910156 "/>
<g clip-path="url(#clip-0)">
<g clip-path="url(#clip-1)">
<g clip-path="url(#clip-2)">
<path fill-rule="nonzero" fill="url(#linear-pattern-0)" d="M 1222.789062 888.339844 L 930.371094 714.5 L 778.253906 970.378906 L 1070.671875 1144.21875 Z M 1222.789062 888.339844 "/>
</g>
</g>
</g>
<g clip-path="url(#clip-3)">
<g clip-path="url(#clip-4)">
<g clip-path="url(#clip-5)">
<path fill-rule="nonzero" fill="url(#linear-pattern-1)" d="M 1194.339844 546.945312 L 1138.285156 513.621094 L 1108.582031 563.585938 L 1164.636719 596.910156 Z M 1194.339844 546.945312 "/>
</g>
</g>
</g>
<g clip-path="url(#clip-6)">
<g clip-path="url(#clip-7)">
<g clip-path="url(#clip-8)">
<path fill-rule="nonzero" fill="url(#linear-pattern-2)" d="M 1319.34375 611.304688 L 908.269531 366.929688 L 680.464844 750.125 L 1091.539062 994.5 Z M 1319.34375 611.304688 "/>
</g>
</g>
</g>
<g clip-path="url(#clip-9)">
<g clip-path="url(#clip-10)">
<g clip-path="url(#clip-11)">
<path fill-rule="nonzero" fill="url(#linear-pattern-3)" d="M 1815.609375 660.5 L 792.78125 52.441406 L 185.109375 1074.617188 L 1207.9375 1682.679688 Z M 1815.609375 660.5 "/>
</g>
</g>
</g>
</svg>
